<svg id="Capa_1" enable-background="new 0 0 497 497" height="512" viewBox="0 0 497 497" width="512" xmlns="http://www.w3.org/2000/svg"><g><g><g><path d="m283.353 71.392-34.836 20-34.869-20-8.818-61.131c-.781-5.413 3.418-10.261 8.887-10.261h69.565c5.469 0 9.668 4.848 8.887 10.261z" fill="#c39f8e"/></g></g><g><g><path d="m283.283 0h-30c5.469 0 9.668 4.848 8.887 10.261l-8.817 61.131 15.978 10 14.022-10 8.817-61.131c.781-5.413-3.418-10.261-8.887-10.261z" fill="#b78c7a"/></g></g><g><g><path d="m348.629 214.697c-13.077-17.191-27.28-36.618-33.444-45.091-2.232-3.068-4.139-6.352-5.686-9.816-11.628-26.046-17.964-54.134-18.678-82.636-.08-3.206-2.7-5.762-5.907-5.762h-73.28c-3.195 0-5.808 2.536-5.906 5.729-.889 28.756-7.507 57.057-19.49 83.232-1.123 2.453-2.469 4.795-3.964 7.042-5.305 7.972-19.131 28.556-32.795 47.303-2.665 3.656 102.602 10.653 102.602 10.653s99.361-6.955 96.548-10.654z" fill="#fafafa"/></g></g><g><g><path d="m285.189 169.612c7.167 9.853 25.188 34.493 39.677 53.222 0 0 25.884-5.346 23.762-8.136-13.073-17.186-27.273-36.609-33.439-45.086-2.235-3.072-4.145-6.36-5.693-9.829-11.626-26.044-17.961-54.129-18.675-82.629-.08-3.206-2.7-5.762-5.907-5.762h-24.16c-.048 30.47 6.334 60.594 18.743 88.391 1.547 3.469 3.458 6.757 5.692 9.829z" fill="#f0f0f0"/></g></g><g><g><path d="m348.628 214.698h-199.149c-6.616 9.078-13.195 17.728-18.748 24.303-29.139 34.497-53.814 74.642-53.379 123.46.468 52.597 25.653 99.413 64.359 129.521 4.198 3.265 9.376 5.018 14.695 5.018h184.466c5.327 0 10.513-1.759 14.715-5.033 38.987-30.376 64.068-77.764 64.068-131.017 0-48.728-24.839-88.938-54.437-125.048-4.672-5.699-10.509-13.21-16.59-21.204z" fill="#f7e07b"/></g></g><g><g><path d="m365.217 235.902c-4.671-5.699-10.508-13.21-16.589-21.204h-30c6.081 7.994 11.918 15.505 16.589 21.204 29.597 36.11 54.437 76.32 54.437 125.048 0 53.253-25.081 100.641-64.068 131.017-4.202 3.274-9.388 5.033-14.715 5.033h30c5.327 0 10.513-1.759 14.715-5.033 38.987-30.376 64.068-77.764 64.068-131.017 0-48.728-24.839-88.938-54.437-125.048z" fill="#f2d062"/></g></g><g><g><path d="m277.938 334.652s-105.376 30.842-134.884-28.724c51.217-42.375 134.884 28.724 134.884 28.724z" fill="#95c9a6"/></g></g><g><g><path d="m322.969 306.108s-82.928 7.153-88.303-46.65c47.473-25.883 88.303 46.65 88.303 46.65z" fill="#95c9a6"/></g></g><path d="m355.182 301.381c-.652-4.091-4.496-6.879-8.588-6.225-76.579 12.22-124.936 81.665-126.957 84.615-2.341 3.418-1.469 8.085 1.949 10.426 1.296.888 2.771 1.313 4.232 1.313 2.391 0 4.741-1.141 6.194-3.262.271-.396 16.545-23.776 44.331-45.139 3.173 6.551 7.395 16.945 8.99 28.5.519 3.755 3.733 6.475 7.42 6.475.342 0 .688-.023 1.035-.071 4.103-.567 6.971-4.352 6.404-8.456-2.053-14.871-7.713-27.884-11.477-35.256 17.031-11.178 37.359-20.682 60.242-24.333 4.091-.652 6.877-4.496 6.225-8.587z" fill="#ab7b64"/><g><g><ellipse cx="213.725" cy="412.414" fill="#8face0" rx="34.94" ry="25.145" transform="matrix(.318 -.948 .948 .318 -245.248 483.884)"/></g></g><g><g><ellipse cx="291.742" cy="401.224" fill="#8face0" rx="34.94" ry="25.145" transform="matrix(.067 -.998 .998 .067 -128.119 665.441)"/></g></g></g></svg>